<mxfile host="app.diagrams.net" modified="2020-12-31T16:27:40.169Z" agent="5.0 (Windows)" etag="KU1SHDw7bthDcSlpOvAf" version="13.10.0" type="github">
  <diagram id="4UYlCgZRLO4GiP1bX2ro" name="Page-1">
    <mxGraphModel dx="854" dy="404" grid="1" gridSize="10" guides="1" tooltips="1" connect="1" arrows="1" fold="1" page="1" pageScale="1" pageWidth="827" pageHeight="1169" math="0" shadow="0">
      <root>
        <mxCell id="0" />
        <mxCell id="1" parent="0" />
        <mxCell id="7-Hjf0vCj2hYxwcwaUoQ-1" value="&lt;p style=&quot;margin: 0px ; margin-top: 4px ; text-align: center ; text-decoration: underline&quot;&gt;&lt;b&gt;Asset Identification:Submodel&lt;/b&gt;&lt;/p&gt;&lt;hr&gt;&lt;div&gt;&lt;i&gt;Typbezogen:&lt;/i&gt; &lt;br&gt;&lt;/div&gt;&lt;div&gt;ManufacturerName: MultiLanguageProperty [1]&lt;/div&gt;&lt;div&gt;&amp;nbsp;ManufacturerId: Property&amp;lt;String&amp;gt; [0..1]&lt;/div&gt;&lt;div&gt;&amp;nbsp;ManufacturerIdProvider: Property&amp;lt;String&amp;gt; [0..1]&lt;/div&gt;&lt;div&gt;&amp;nbsp;ManufacturerTypId: Property&amp;lt;String&amp;gt; [0..1]&lt;/div&gt;&lt;div&gt;&amp;nbsp;ManufacturerTypName: MultiLanguageProperty [0..1]&lt;/div&gt;&lt;div&gt;&amp;nbsp;ManufacturerTypDescription: MultiLanguageProperty [0..1]&lt;/div&gt;&lt;div&gt;&amp;nbsp;SupplierName: MultiLanguageProperty [0..1]&lt;/div&gt;&lt;div&gt;&amp;nbsp;SupplierId: Property&amp;lt;String&amp;gt; [0..1]&lt;br&gt;&lt;/div&gt;&lt;div&gt;&amp;nbsp;SupplierIdProvider: Property&amp;lt;String&amp;gt; [0..1]&lt;/div&gt;&lt;div&gt;&amp;nbsp;SupplierTypId: Property&amp;lt;String&amp;gt; [0..1]&lt;/div&gt;&lt;div&gt;&amp;nbsp;SupplierTypName: MultiLanguageProperty [0..1]&lt;/div&gt;&lt;div&gt;&amp;nbsp;SupplierTypDescription: MultiLanguageProperty [0..1]&lt;/div&gt;&lt;div&gt;&amp;nbsp;TypClass: Property&amp;lt;String&amp;gt;&lt;/div&gt;&lt;div&gt;&amp;nbsp;ClassificationSystem: MultiLanguageProperty [0..1]&lt;/div&gt;&lt;div&gt;&amp;nbsp;SecondaryKeyTyp: Property&amp;lt;String&amp;gt; [0..1]&lt;/div&gt;&lt;div&gt;&amp;nbsp;TypThumbnail: File [0..1]&lt;br&gt;&lt;/div&gt;&lt;div&gt;&amp;nbsp;&lt;i&gt;Instanzbezogen:&lt;/i&gt;&lt;/div&gt;&lt;div&gt;&amp;nbsp;AssetId: Property&amp;lt;String&amp;gt;&lt;br&gt;&lt;/div&gt;" style="verticalAlign=top;align=left;overflow=fill;fontSize=12;fontFamily=Helvetica;html=1;" vertex="1" parent="1">
          <mxGeometry x="380" y="70" width="330" height="450" as="geometry" />
        </mxCell>
        <mxCell id="7-Hjf0vCj2hYxwcwaUoQ-2" value="&lt;div align=&quot;left&quot;&gt;&lt;i&gt;Hinweis&lt;/i&gt;: &lt;br&gt;&lt;ul&gt;&lt;li&gt;Da die zu verwendende Art von Teilmodell-Element f체r &lt;br&gt;die Merkmale in VWSk nicht angegeben wird handelt es sich hier um Vorschl채ge, basierend auf der Aussage, welche das Merkmal machen soll&lt;/li&gt;&lt;li&gt;gleiches gilt f체r die Kardinalit채ten&lt;br&gt;&lt;/li&gt;&lt;/ul&gt;&lt;/div&gt;" style="shape=note;size=24;whiteSpace=wrap;html=1;align=left;" vertex="1" parent="1">
          <mxGeometry x="380" y="570" width="420" height="115" as="geometry" />
        </mxCell>
      </root>
    </mxGraphModel>
  </diagram>
</mxfile>
